<svg xmlns="http://www.w3.org/2000/svg" xmlns:xlink="http://www.w3.org/1999/xlink" width="68.874" height="68.874" viewBox="0 0 68.874 68.874">
  <defs>
    <linearGradient id="linear-gradient" x1="0.5" x2="0.5" y2="1" gradientUnits="objectBoundingBox">
      <stop offset="0" stop-color="#699fff"/>
      <stop offset="0.517" stop-color="#6a9fff"/>
      <stop offset="1" stop-color="#3775f2"/>
    </linearGradient>
  </defs>
  <g id="svgexport-8_8_" data-name="svgexport-8 (8)" transform="translate(0 0.001)">
    <path id="Path_49" data-name="Path 49" d="M12.113,53.262a5.616,5.616,0,0,0-2.714.693A31.761,31.761,0,0,1,40.759,3.319,1.345,1.345,0,0,0,41.292.682,34.693,34.693,0,0,0,34.437,0,34.437,34.437,0,0,0,7.41,55.778a5.652,5.652,0,1,0,4.7-2.516ZM14.206,61a2.959,2.959,0,1,1,.867-2.092A2.939,2.939,0,0,1,14.206,61Zm0,0" transform="translate(0 0)" fill="url(#linear-gradient)"/>
    <path id="Path_50" data-name="Path 50" d="M232.38,40.833a5.638,5.638,0,1,0-1.988,1.825,31.761,31.761,0,0,1-31.3,50.648,1.345,1.345,0,1,0-.528,2.638,34.716,34.716,0,0,0,6.79.669,34.437,34.437,0,0,0,27.025-55.78Zm-6.794-1.039a2.96,2.96,0,1,1,2.092.866A2.94,2.94,0,0,1,225.586,39.793Zm0,0" transform="translate(-170.919 -27.74)" fill="url(#linear-gradient)"/>
    <path id="Path_51" data-name="Path 51" d="M92.918,121.62a1.345,1.345,0,0,0,1.345,1.345h8.411a1.345,1.345,0,0,0,1.345-1.345v-2.608a21.065,21.065,0,0,0,5.049-2.092l1.841,1.841a1.345,1.345,0,0,0,1.9,0l5.945-5.949a1.346,1.346,0,0,0,0-1.9l-1.839-1.839a21.066,21.066,0,0,0,2.092-5.049h2.6a1.345,1.345,0,0,0,1.345-1.345V94.265a1.345,1.345,0,0,0-1.345-1.345h-2.6a21.068,21.068,0,0,0-2.092-5.048l1.829-1.829a1.345,1.345,0,0,0,0-1.9l-5.95-5.945a1.345,1.345,0,0,0-1.9,0l-1.826,1.827a21.065,21.065,0,0,0-5.049-2.092V75.345A1.345,1.345,0,0,0,102.674,74H94.263a1.345,1.345,0,0,0-1.345,1.345v2.584a21.047,21.047,0,0,0-5.048,2.092l-1.827-1.827a1.346,1.346,0,0,0-1.9,0l-5.949,5.946a1.345,1.345,0,0,0,0,1.9l1.829,1.829a21.062,21.062,0,0,0-2.092,5.048H75.334a1.345,1.345,0,0,0-1.345,1.345l0,8.411a1.345,1.345,0,0,0,1.345,1.346h2.6a21.065,21.065,0,0,0,2.092,5.049l-1.839,1.839a1.345,1.345,0,0,0,0,1.9l5.945,5.949a1.346,1.346,0,0,0,.951.395h0a1.345,1.345,0,0,0,.951-.394l1.841-1.841a21.083,21.083,0,0,0,5.049,2.092ZM88.4,114.09a1.346,1.346,0,0,0-1.681.179l-1.638,1.638-4.043-4.047,1.636-1.637a1.345,1.345,0,0,0,.179-1.681,18.412,18.412,0,0,1-2.548-6.149,1.346,1.346,0,0,0-1.315-1.062h-2.31l0-5.721h2.307A1.345,1.345,0,0,0,80.3,94.547,18.414,18.414,0,0,1,82.849,88.4a1.345,1.345,0,0,0-.179-1.681l-1.626-1.626,4.047-4.043,1.624,1.625a1.346,1.346,0,0,0,1.681.179A18.405,18.405,0,0,1,94.546,80.3a1.346,1.346,0,0,0,1.063-1.315v-2.3h5.721v2.3a1.345,1.345,0,0,0,1.062,1.315,18.42,18.42,0,0,1,6.149,2.548,1.344,1.344,0,0,0,1.681-.179l1.625-1.624,4.047,4.043-1.626,1.626a1.345,1.345,0,0,0-.179,1.681,18.426,18.426,0,0,1,2.548,6.149,1.345,1.345,0,0,0,1.315,1.062h2.312v5.721h-2.312a1.346,1.346,0,0,0-1.315,1.062,18.409,18.409,0,0,1-2.548,6.149,1.345,1.345,0,0,0,.179,1.681l1.636,1.636-4.043,4.047-1.638-1.637a1.345,1.345,0,0,0-1.681-.179,18.425,18.425,0,0,1-6.149,2.548,1.345,1.345,0,0,0-1.062,1.315v2.321H95.608v-2.321a1.346,1.346,0,0,0-1.062-1.315A18.414,18.414,0,0,1,88.4,114.09Zm0,0" transform="translate(-64.032 -64.046)" fill="url(#linear-gradient)"/>
    <path id="Path_52" data-name="Path 52" d="M195.6,184.486A11.115,11.115,0,1,0,184.486,195.6,11.128,11.128,0,0,0,195.6,184.486Zm-19.54,0a8.425,8.425,0,1,1,8.425,8.425A8.434,8.434,0,0,1,176.062,184.486Zm0,0" transform="translate(-150.05 -150.05)" fill="url(#linear-gradient)"/>
    <path id="Path_53" data-name="Path 53" d="M339.423,20.5a1.346,1.346,0,1,0-.951-.394A1.355,1.355,0,0,0,339.423,20.5Zm0,0" transform="translate(-292.6 -15.414)" fill="url(#linear-gradient)"/>
    <path id="Path_54" data-name="Path 54" d="M155.7,474.359a1.346,1.346,0,1,0,.951.394A1.356,1.356,0,0,0,155.7,474.359Zm0,0" transform="translate(-133.595 -410.549)" fill="url(#linear-gradient)"/>
  </g>
</svg>
