<svg xmlns="http://www.w3.org/2000/svg" xmlns:xlink="http://www.w3.org/1999/xlink" width="63.349" height="63.35" viewBox="0 0 63.349 63.35">
  <defs>
    <linearGradient id="linear-gradient" x1="0.5" x2="0.5" y2="1" gradientUnits="objectBoundingBox">
      <stop offset="0" stop-color="#699fff"/>
      <stop offset="0.517" stop-color="#6a9fff"/>
      <stop offset="1" stop-color="#3775f2"/>
    </linearGradient>
  </defs>
  <g id="svgexport-7_-_2022-12-25T163037.349" data-name="svgexport-7 - 2022-12-25T163037.349" transform="translate(0 -0.485)">
    <path id="Path_615" data-name="Path 615" d="M42.668,352.5H99.417v2.639H42.668Zm0,0" transform="translate(-37.389 -308.461)" fill="url(#linear-gradient)"/>
    <path id="Path_616" data-name="Path 616" d="M160,437.832h2.639v7.919H160Zm0,0" transform="translate(-140.204 -383.235)" fill="url(#linear-gradient)"/>
    <path id="Path_617" data-name="Path 617" d="M330.668,437.832h2.639v7.919h-2.639Zm0,0" transform="translate(-289.755 -383.235)" fill="url(#linear-gradient)"/>
    <path id="Path_618" data-name="Path 618" d="M128,491.168h31.674v2.639H128Zm0,0" transform="translate(-112.163 -429.972)" fill="url(#linear-gradient)"/>
    <path id="Path_619" data-name="Path 619" d="M59.389,130.7H3.959A3.959,3.959,0,0,1,0,126.745V89.791a3.959,3.959,0,0,1,3.959-3.959H14.517v2.64H3.959a1.32,1.32,0,0,0-1.32,1.319v36.953a1.32,1.32,0,0,0,1.32,1.32h55.43a1.32,1.32,0,0,0,1.32-1.32v-26.4h2.639v26.4A3.959,3.959,0,0,1,59.389,130.7Zm0,0" transform="translate(0 -74.787)" fill="url(#linear-gradient)"/>
    <path id="Path_620" data-name="Path 620" d="M321.9,26.882A13.2,13.2,0,1,1,333.658,7.765a1.318,1.318,0,0,1-.245,1.524l-4.386,4.4,4.386,4.395a1.319,1.319,0,0,1,.245,1.524A13.105,13.105,0,0,1,321.9,26.882Zm0-23.756a10.558,10.558,0,1,0,8.947,16.113l-4.619-4.619a1.32,1.32,0,0,1,0-1.867l4.619-4.619A10.467,10.467,0,0,0,321.9,3.126Zm0,0" transform="translate(-270.473 0)" fill="url(#linear-gradient)"/>
    <path id="Path_621" data-name="Path 621" d="M173.307,108.268h-2.639V99.03a13.212,13.212,0,0,1,13.2-13.2v2.64A10.57,10.57,0,0,0,173.307,99.03Zm0,0" transform="translate(-149.552 -74.787)" fill="url(#linear-gradient)"/>
    <path id="Path_622" data-name="Path 622" d="M226.639,149.726H224v-3.959a6.607,6.607,0,0,1,6.6-6.6v2.639a3.959,3.959,0,0,0-3.959,3.959Zm0,0" transform="translate(-196.285 -121.524)" fill="url(#linear-gradient)"/>
    <path id="Path_623" data-name="Path 623" d="M119.972,58.9h-2.64V52.3a19.819,19.819,0,0,1,19.8-19.8v2.639A17.177,17.177,0,0,0,119.972,52.3Zm0,0" transform="translate(-102.815 -28.054)" fill="url(#linear-gradient)"/>
    <path id="Path_624" data-name="Path 624" d="M170.668,288.5h2.639v2.639h-2.639Zm0,0" transform="translate(-149.552 -252.38)" fill="url(#linear-gradient)"/>
    <g id="Group_2223" data-name="Group 2223" transform="translate(14.517 7.085)">
      <path id="Path_625" data-name="Path 625" d="M345.185,253.75h-13.2a1.319,1.319,0,0,1-1.319-1.319v-5.279a1.32,1.32,0,0,1,1.319-1.32h13.2a1.32,1.32,0,0,1,1.32,1.32v5.279A1.32,1.32,0,0,1,345.185,253.75Zm-11.878-2.639h10.558v-2.639H333.307Zm0,0" transform="translate(-304.272 -222.076)" fill="url(#linear-gradient)"/>
      <path id="Path_626" data-name="Path 626" d="M352,299.168h2.639v7.919H352Zm0,0" transform="translate(-322.965 -268.813)" fill="url(#linear-gradient)"/>
      <path id="Path_627" data-name="Path 627" d="M416,299.168h2.639v7.919H416Zm0,0" transform="translate(-379.047 -268.813)" fill="url(#linear-gradient)"/>
      <path id="Path_628" data-name="Path 628" d="M416,53.832h2.639v2.64H416Zm0,0" transform="translate(-379.047 -53.832)" fill="url(#linear-gradient)"/>
      <path id="Path_629" data-name="Path 629" d="M117.332,267.168h2.64v2.639h-2.64Zm0,0" transform="translate(-117.332 -240.772)" fill="url(#linear-gradient)"/>
      <path id="Path_630" data-name="Path 630" d="M224,245.832h2.639v2.64H224Zm0,0" transform="translate(-210.802 -222.076)" fill="url(#linear-gradient)"/>
    </g>
  </g>
</svg>
