<svg id="Group_14" data-name="Group 14" xmlns="http://www.w3.org/2000/svg" xmlns:xlink="http://www.w3.org/1999/xlink" width="61.635" height="63.569" viewBox="0 0 61.635 63.569">
  <defs>
    <linearGradient id="linear-gradient" x1="0.5" x2="0.5" y2="1" gradientUnits="objectBoundingBox">
      <stop offset="0" stop-color="#699fff"/>
      <stop offset="0.517" stop-color="#6a9fff"/>
      <stop offset="1" stop-color="#3775f2"/>
    </linearGradient>
  </defs>
  <g id="Group_13" data-name="Group 13" transform="translate(0 0)">
    <g id="Group_12" data-name="Group 12" transform="translate(0 0)">
      <path id="Path_58" data-name="Path 58" d="M39.989,26.253a1.862,1.862,0,0,0-2.258,1.355l-1.862,7.449a1.862,1.862,0,1,0,3.613.9l1.862-7.449A1.862,1.862,0,0,0,39.989,26.253Zm4.75.49a1.862,1.862,0,0,0,0,2.634l2.408,2.408-2.408,2.408a1.862,1.862,0,0,0,2.634,2.634L51.1,33.1a1.862,1.862,0,0,0,0-2.634l-3.725-3.725a1.862,1.862,0,0,0-2.634,0Zm-12.265,0a1.863,1.863,0,0,0-2.634,0l-3.725,3.725a1.862,1.862,0,0,0,0,2.634l3.725,3.725a1.862,1.862,0,0,0,2.634-2.634l-2.408-2.408,2.408-2.408A1.862,1.862,0,0,0,32.474,26.743ZM38.606,11.3A20.486,20.486,0,1,0,59.092,31.785,20.509,20.509,0,0,0,38.606,11.3Zm0,37.247A16.761,16.761,0,1,1,55.368,31.785,16.78,16.78,0,0,1,38.606,48.546ZM68.67,39.093l-2.525-1.871a27.879,27.879,0,0,0,.37-5.437,27.879,27.879,0,0,0-.37-5.437l2.525-1.871a1.862,1.862,0,0,0,.612-2.209l-2.851-6.882a1.862,1.862,0,0,0-1.995-1.129l-3.108.462a27.567,27.567,0,0,0-6.473-6.48l.554-3.207a1.862,1.862,0,0,0-1.123-2.038L47.405.142a1.863,1.863,0,0,0-2.2.6L43.209,3.4a27.563,27.563,0,0,0-9.2,0L32.01.746a1.862,1.862,0,0,0-2.2-.6L22.925,2.993A1.863,1.863,0,0,0,21.8,5.031l.554,3.207a27.564,27.564,0,0,0-6.473,6.48l-3.108-.462a1.863,1.863,0,0,0-1.995,1.129L7.931,22.267a1.862,1.862,0,0,0,.612,2.209l2.525,1.871a27.76,27.76,0,0,0-.37,5.438,27.752,27.752,0,0,0,.37,5.438L8.543,39.093A1.862,1.862,0,0,0,7.931,41.3l2.851,6.882a1.863,1.863,0,0,0,1.995,1.129l3.108-.462a27.565,27.565,0,0,0,6.473,6.48L21.8,58.539a1.862,1.862,0,0,0,1.123,2.038l6.882,2.851a1.863,1.863,0,0,0,2.2-.6L34,60.165a27.566,27.566,0,0,0,9.2,0L45.2,62.824a1.862,1.862,0,0,0,2.2.6l6.882-2.851a1.863,1.863,0,0,0,1.123-2.038l-.554-3.207a27.565,27.565,0,0,0,6.473-6.481l3.108.462a1.863,1.863,0,0,0,1.995-1.129L69.282,41.3a1.862,1.862,0,0,0-.612-2.209Zm-6.394-13.16a24.18,24.18,0,0,1,.514,5.792c0,.04,0,.08,0,.121a24.18,24.18,0,0,1-.514,5.792,1.862,1.862,0,0,0,.713,1.883l2.3,1.7-1.738,4.2L60.721,45a1.862,1.862,0,0,0-1.836.827A23.933,23.933,0,0,1,51.8,52.9a1.862,1.862,0,0,0-.822,1.88l.5,2.921-4.171,1.728L45.492,57a1.862,1.862,0,0,0-1.878-.7,23.934,23.934,0,0,1-10.016,0,1.863,1.863,0,0,0-1.876.7L29.9,59.433l-4.171-1.728.5-2.92a1.862,1.862,0,0,0-.82-1.879,23.931,23.931,0,0,1-7.083-7.083A1.862,1.862,0,0,0,16.493,45l-2.826.421-1.738-4.2,2.3-1.7a1.862,1.862,0,0,0,.713-1.885,24.017,24.017,0,0,1-.514-5.789c0-.041,0-.081,0-.122a24.018,24.018,0,0,1,.514-5.789,1.863,1.863,0,0,0-.713-1.885l-2.3-1.7,1.738-4.2,2.826.421a1.861,1.861,0,0,0,1.837-.829,23.932,23.932,0,0,1,7.083-7.083,1.862,1.862,0,0,0,.82-1.879l-.5-2.92L29.9,4.136l1.823,2.431a1.862,1.862,0,0,0,1.876.7,23.932,23.932,0,0,1,10.016,0,1.862,1.862,0,0,0,1.878-.7l1.824-2.432,4.171,1.728-.5,2.921a1.862,1.862,0,0,0,.822,1.88,23.933,23.933,0,0,1,7.083,7.083,1.862,1.862,0,0,0,1.836.827l2.826-.42,1.738,4.2-2.3,1.7a1.863,1.863,0,0,0-.713,1.883Z" transform="translate(-7.789 0)" fill="url(#linear-gradient)"/>
    </g>
  </g>
</svg>
